<?xml version="1.0" encoding="utf-8" standalone="no"?>
<!DOCTYPE svg PUBLIC "-//W3C//DTD SVG 1.1//EN"
  "http://www.w3.org/Graphics/SVG/1.1/DTD/svg11.dtd">
<svg xmlns:xlink="http://www.w3.org/1999/xlink" width="765.418125pt" height="427.798828pt" viewBox="0 0 765.418125 427.798828" xmlns="http://www.w3.org/2000/svg" version="1.1">
 <metadata>
  <rdf:RDF xmlns:dc="http://purl.org/dc/elements/1.1/" xmlns:cc="http://creativecommons.org/ns#" xmlns:rdf="http://www.w3.org/1999/02/22-rdf-syntax-ns#">
   <cc:Work>
    <dc:type rdf:resource="http://purl.org/dc/dcmitype/StillImage"/>
    <dc:date>2026-10-03T10:14:31.855741</dc:date>
    <dc:format>image/svg+xml</dc:format>
    <dc:creator>
     <cc:Agent>
      <dc:title>Matplotlib v3.11.2, https://matplotlib.org/</dc:title>
     </cc:Agent>
    </dc:creator>
   </cc:Work>
  </rdf:RDF>
 </metadata>
 <defs>
  <style type="text/css">*{stroke-linejoin: round; stroke-linecap: butt}</style>
 </defs>
 <g id="figure_1">
  <g id="patch_1">
   <path d="M 0 427.798828
L 765.418125 427.798828
L 765.418125 0
L 0 0
z
" style="fill: #f8faf8"/>
  </g>
  <g id="axes_1">
   <g id="patch_2">
    <path d="M 225 342.836719
L 747.72 342.836719
L 747.72 87.956719
L 225 87.956719
z
" style="fill: #f8faf8"/>
   </g>
   <g id="patch_3">
    <path d="M 225 99.542173
L 546.514967 99.542173
L 546.514967 130.637333
L 225 130.637333
z
" clip-path="url(#p2af6d63fa6)" style="fill: #087f83"/>
   </g>
   <g id="patch_4">
    <path d="M 225 149.695656
L 747.72 149.695656
L 747.72 180.790816
L 225 180.790816
z
" clip-path="url(#p2af6d63fa6)" style="fill: #087f83"/>
   </g>
   <g id="patch_5">
    <path d="M 225 199.849139
L 677.495177 199.849139
L 677.495177 230.944298
L 225 230.944298
z
" clip-path="url(#p2af6d63fa6)" style="fill: #087f83"/>
   </g>
   <g id="patch_6">
    <path d="M 225 250.002622
L 575.564717 250.002622
L 575.564717 281.097781
L 225 281.097781
z
" clip-path="url(#p2af6d63fa6)" style="fill: #087f83"/>
   </g>
   <g id="patch_7">
    <path d="M 225 300.156105
L 558.221495 300.156105
L 558.221495 331.251264
L 225 331.251264
z
" clip-path="url(#p2af6d63fa6)" style="fill: #087f83"/>
   </g>
   <g id="patch_8">
    <path d="M 546.514967 99.542173
L 680.360566 99.542173
L 680.360566 130.637333
L 546.514967 130.637333
z
" clip-path="url(#p2af6d63fa6)" style="fill: #48879b"/>
   </g>
   <g id="patch_9">
    <path d="M 747.72 149.695656
L 747.72 149.695656
L 747.72 180.790816
L 747.72 180.790816
z
" clip-path="url(#p2af6d63fa6)" style="fill: #48879b"/>
   </g>
   <g id="patch_10">
    <path d="M 677.495177 199.849139
L 747.72 199.849139
L 747.72 230.944298
L 677.495177 230.944298
z
" clip-path="url(#p2af6d63fa6)" style="fill: #48879b"/>
   </g>
   <g id="patch_11">
    <path d="M 575.564717 250.002622
L 713.668811 250.002622
L 713.668811 281.097781
L 575.564717 281.097781
z
" clip-path="url(#p2af6d63fa6)" style="fill: #48879b"/>
   </g>
   <g id="patch_12">
    <path d="M 558.221495 300.156105
L 689.493269 300.156105
L 689.493269 331.251264
L 558.221495 331.251264
z
" clip-path="url(#p2af6d63fa6)" style="fill: #48879b"/>
   </g>
   <g id="patch_13">
    <path d="M 680.360566 99.542173
L 747.72 99.542173
L 747.72 130.637333
L 680.360566 130.637333
z
" clip-path="url(#p2af6d63fa6)" style="fill: #d4ded4"/>
   </g>
   <g id="patch_14">
    <path d="M 747.72 149.695656
L 747.72 149.695656
L 747.72 180.790816
L 747.72 180.790816
z
" clip-path="url(#p2af6d63fa6)" style="fill: #d4ded4"/>
   </g>
   <g id="patch_15">
    <path d="M 747.72 199.849139
L 747.72 199.849139
L 747.72 230.944298
L 747.72 230.944298
z
" clip-path="url(#p2af6d63fa6)" style="fill: #d4ded4"/>
   </g>
   <g id="patch_16">
    <path d="M 713.668811 250.002622
L 747.72 250.002622
L 747.72 281.097781
L 713.668811 281.097781
z
" clip-path="url(#p2af6d63fa6)" style="fill: #d4ded4"/>
   </g>
   <g id="patch_17">
    <path d="M 689.493269 300.156105
L 747.72 300.156105
L 747.72 331.251264
L 689.493269 331.251264
z
" clip-path="url(#p2af6d63fa6)" style="fill: #d4ded4"/>
   </g>
   <g id="matplotlib.axis_1">
    <g id="xtick_1">
     <g id="line2d_1"/>
     <g id="text_1">
      <text style="font-size: 11px; font-family: 'DejaVu Sans'; text-anchor: middle; fill: #62747b" x="225" y="354.694141" transform="rotate(-0 225 354.694141)">0</text>
     </g>
    </g>
    <g id="xtick_2">
     <g id="line2d_2"/>
     <g id="text_2">
      <text style="font-size: 11px; font-family: 'DejaVu Sans'; text-anchor: middle; fill: #62747b" x="329.544" y="354.694141" transform="rotate(-0 329.544 354.694141)">20</text>
     </g>
    </g>
    <g id="xtick_3">
     <g id="line2d_3"/>
     <g id="text_3">
      <text style="font-size: 11px; font-family: 'DejaVu Sans'; text-anchor: middle; fill: #62747b" x="434.088" y="354.694141" transform="rotate(-0 434.088 354.694141)">40</text>
     </g>
    </g>
    <g id="xtick_4">
     <g id="line2d_4"/>
     <g id="text_4">
      <text style="font-size: 11px; font-family: 'DejaVu Sans'; text-anchor: middle; fill: #62747b" x="538.632" y="354.694141" transform="rotate(-0 538.632 354.694141)">60</text>
     </g>
    </g>
    <g id="xtick_5">
     <g id="line2d_5"/>
     <g id="text_5">
      <text style="font-size: 11px; font-family: 'DejaVu Sans'; text-anchor: middle; fill: #62747b" x="643.176" y="354.694141" transform="rotate(-0 643.176 354.694141)">80</text>
     </g>
    </g>
    <g id="xtick_6">
     <g id="line2d_6"/>
     <g id="text_6">
      <text style="font-size: 11px; font-family: 'DejaVu Sans'; text-anchor: middle; fill: #62747b" x="747.72" y="354.694141" transform="rotate(-0 747.72 354.694141)">100</text>
     </g>
    </g>
    <g id="text_7">
     <text style="font-size: 11px; font-family: 'DejaVu Sans'; text-anchor: middle; fill: #173c4b" x="486.36" y="369.695" transform="rotate(-0 486.36 369.695)">Share of first moves (%)</text>
    </g>
   </g>
   <g id="matplotlib.axis_2">
    <g id="ytick_1">
     <g id="line2d_7"/>
     <g id="text_8">
      <text style="font-size: 11px; font-family: 'DejaVu Sans'; text-anchor: end; fill: #173c4b" x="213" y="119.268894" transform="rotate(-0 213 119.268894)">Human players</text>
     </g>
    </g>
    <g id="ytick_2">
     <g id="line2d_8"/>
     <g id="text_9">
      <text style="font-size: 11px; font-family: 'DejaVu Sans'; text-anchor: end; fill: #173c4b" x="213" y="169.421947" transform="rotate(-0 213 169.421947)">Temperature 0 · Top-P 0</text>
     </g>
    </g>
    <g id="ytick_3">
     <g id="line2d_9"/>
     <g id="text_10">
      <text style="font-size: 11px; font-family: 'DejaVu Sans'; text-anchor: end; fill: #173c4b" x="213" y="219.57543" transform="rotate(-0 213 219.57543)">Temperature 0.5 · Top-P 0.9</text>
     </g>
    </g>
    <g id="ytick_4">
     <g id="line2d_10"/>
     <g id="text_11">
      <text style="font-size: 11px; font-family: 'DejaVu Sans'; text-anchor: end; fill: #173c4b" x="213" y="269.728913" transform="rotate(-0 213 269.728913)">Temperature 1 · Top-P 0.95</text>
     </g>
    </g>
    <g id="ytick_5">
     <g id="line2d_11"/>
     <g id="text_12">
      <text style="font-size: 11px; font-family: 'DejaVu Sans'; text-anchor: end; fill: #173c4b" x="213" y="319.882395" transform="rotate(-0 213 319.882395)">Temperature 1 · Top-P 1</text>
     </g>
    </g>
   </g>
   <g id="patch_18">
    <path d="M 225 342.836719
L 747.72 342.836719
" style="fill: none; stroke: #d6e0d9; stroke-width: 0.8; stroke-linejoin: miter; stroke-linecap: square"/>
   </g>
   <g id="text_13">
    <text style="font-weight: 700; font-size: 11px; font-family: 'DejaVu Sans'; text-anchor: middle; fill: #ffffff" x="385.757484" y="117.947175" transform="rotate(-0 385.757484 117.947175)">61.5%</text>
   </g>
   <g id="text_14">
    <text style="font-weight: 700; font-size: 11px; font-family: 'DejaVu Sans'; text-anchor: middle; fill: #ffffff" x="486.36" y="168.100658" transform="rotate(-0 486.36 168.100658)">100.0%</text>
   </g>
   <g id="text_15">
    <text style="font-weight: 700; font-size: 11px; font-family: 'DejaVu Sans'; text-anchor: middle; fill: #ffffff" x="451.247589" y="218.254141" transform="rotate(-0 451.247589 218.254141)">86.6%</text>
   </g>
   <g id="text_16">
    <text style="font-weight: 700; font-size: 11px; font-family: 'DejaVu Sans'; text-anchor: middle; fill: #ffffff" x="400.282358" y="268.407624" transform="rotate(-0 400.282358 268.407624)">67.1%</text>
   </g>
   <g id="text_17">
    <text style="font-weight: 700; font-size: 11px; font-family: 'DejaVu Sans'; text-anchor: middle; fill: #ffffff" x="391.610747" y="318.561106" transform="rotate(-0 391.610747 318.561106)">63.7%</text>
   </g>
   <g id="text_18">
    <text style="font-weight: 700; font-size: 11px; font-family: 'DejaVu Sans'; text-anchor: middle; fill: #ffffff" x="613.437767" y="117.947175" transform="rotate(-0 613.437767 117.947175)">25.6%</text>
   </g>
   <g id="text_19">
    <text style="font-weight: 700; font-size: 11px; font-family: 'DejaVu Sans'; text-anchor: middle; fill: #ffffff" x="712.607589" y="218.254141" transform="rotate(-0 712.607589 218.254141)">13.4%</text>
   </g>
   <g id="text_20">
    <text style="font-weight: 700; font-size: 11px; font-family: 'DejaVu Sans'; text-anchor: middle; fill: #ffffff" x="644.616764" y="268.407624" transform="rotate(-0 644.616764 268.407624)">26.4%</text>
   </g>
   <g id="text_21">
    <text style="font-weight: 700; font-size: 11px; font-family: 'DejaVu Sans'; text-anchor: middle; fill: #ffffff" x="623.857382" y="318.561106" transform="rotate(-0 623.857382 318.561106)">25.1%</text>
   </g>
   <g id="text_22">
    <text style="font-weight: 700; font-size: 11px; font-family: 'DejaVu Sans'; text-anchor: middle; fill: #173c4b" x="714.040283" y="117.947175" transform="rotate(-0 714.040283 117.947175)">12.9%</text>
   </g>
   <g id="text_23">
    <text style="font-weight: 700; font-size: 11px; font-family: 'DejaVu Sans'; text-anchor: middle; fill: #173c4b" x="730.694405" y="268.407624" transform="rotate(-0 730.694405 268.407624)">6.5%</text>
   </g>
   <g id="text_24">
    <text style="font-weight: 700; font-size: 11px; font-family: 'DejaVu Sans'; text-anchor: middle; fill: #173c4b" x="718.606635" y="318.561106" transform="rotate(-0 718.606635 318.561106)">11.1%</text>
   </g>
  </g>
  <g id="text_25">
   <text style="font-weight: 700; font-size: 21px; font-family: 'DejaVu Sans'; text-anchor: start; fill: #173c4b" x="7.2" y="23.156719" transform="rotate(-0 7.2 23.156719)">Which first moves does Maia choose?</text>
  </g>
  <g id="text_26">
   <text style="font-size: 12px; font-family: 'DejaVu Sans'; text-anchor: start; fill: #62747b" x="7.2" y="46.916719" transform="rotate(-0 7.2 46.916719)">1/1 leaves room for more than the most popular starts.</text>
  </g>
  <g id="text_27">
   <text style="font-size: 9px; font-family: 'DejaVu Sans'; text-anchor: start; fill: #62747b" x="7.2" y="418.436719" transform="rotate(-0 7.2 418.436719)">Exact model probabilities at 1600/1600. Human comparison: Lichess blitz book, May 2026.</text>
  </g>
  <g id="legend_1">
   <g id="patch_19">
    <path d="M 420.348828 78.135
L 442.348828 78.135
L 442.348828 70.435
L 420.348828 70.435
z
" style="fill: #087f83"/>
   </g>
   <g id="text_28">
    <text style="font-size: 11px; font-family: 'DejaVu Sans'; text-anchor: start; fill: #173c4b" x="451.148828" y="78.135" transform="rotate(-0 451.148828 78.135)">e4</text>
   </g>
   <g id="patch_20">
    <path d="M 486.916016 78.135
L 508.916016 78.135
L 508.916016 70.435
L 486.916016 70.435
z
" style="fill: #48879b"/>
   </g>
   <g id="text_29">
    <text style="font-size: 11px; font-family: 'DejaVu Sans'; text-anchor: start; fill: #173c4b" x="517.716016" y="78.135" transform="rotate(-0 517.716016 78.135)">d4</text>
   </g>
   <g id="patch_21">
    <path d="M 553.698047 78.135
L 575.698047 78.135
L 575.698047 70.435
L 553.698047 70.435
z
" style="fill: #d4ded4"/>
   </g>
   <g id="text_30">
    <text style="font-size: 11px; font-family: 'DejaVu Sans'; text-anchor: start; fill: #173c4b" x="584.498047" y="78.135" transform="rotate(-0 584.498047 78.135)">Other</text>
   </g>
  </g>
 </g>
 <defs>
  <clipPath id="p2af6d63fa6">
   <rect x="225" y="87.956719" width="522.72" height="254.88"/>
  </clipPath>
 </defs>
</svg>
